<svg xmlns="http://www.w3.org/2000/svg" viewBox="0 0 220 220" role="img" aria-label="Loctos">
  <rect width="220" height="220" rx="50" fill="#0a0a0f"/>
  <g transform="translate(16,8)" fill="#ffd11a">
    <path d="M34.624 1.69309C39.4193 0.660834 43.5615 4.49891 43.5615 9.40403V109.859H27.3369C24.061 109.859 22.0135 113.406 23.6514 116.243L49.4521 160.931C51.0904 163.768 55.1861 163.769 56.8242 160.931L68.4961 140.715H115.913C120.614 140.715 124.426 144.525 124.426 149.226V193.915C124.426 198.616 120.635 202.487 115.935 202.563C100.57 202.811 69.3409 203.239 63.2451 202.426C55.2636 201.363 43.5621 200.298 36.1143 197.638C28.6664 194.978 23.3456 191.786 18.5576 188.062C13.7692 184.338 1.00102 173.9 1.00098 152.951C1.00102 132.001 1.00098 40.6989 1.00098 33.2507C1.00098 25.8028 6.32314 16.227 16.9629 8.77903C22.4075 4.96779 29.2451 2.85102 34.624 1.69309Z"/>
    <path d="M152.513 202.537C147.718 203.569 143.575 199.731 143.575 194.826V94.3716H159.801C163.077 94.3716 165.124 90.8242 163.486 87.9869L137.686 43.2994C136.047 40.4621 131.953 40.462 130.314 43.2994L118.643 63.5152H71.2236C66.5226 63.5152 62.711 59.7035 62.7109 55.0025V10.315C62.7109 5.61408 66.5019 1.74262 71.2021 1.66655C86.5669 1.41864 117.796 0.990656 123.892 1.80327C131.873 2.86723 143.575 3.93148 151.022 6.59135C158.47 9.25132 163.791 12.4426 168.579 16.1665C173.367 19.8907 186.136 30.3298 186.136 51.2789C186.136 72.2287 186.136 163.531 186.136 170.979C186.136 178.427 180.814 188.003 170.174 195.451C164.729 199.262 157.892 201.379 152.513 202.537Z"/>
  </g>
</svg>
